<mxfile host="app.diagrams.net" agent="Mozilla/5.0 (Windows NT 10.0; Win64; x64) AppleWebKit/537.36 (KHTML, like Gecko) Chrome/128.0.0.0 Safari/537.36" version="24.7.10">
  <diagram name="Page-1" id="_8XreDs4LjKvfH_-yfZD">
    <mxGraphModel dx="1674" dy="772" grid="1" gridSize="10" guides="1" tooltips="1" connect="1" arrows="1" fold="1" page="1" pageScale="1" pageWidth="850" pageHeight="1100" math="0" shadow="0">
      <root>
        <mxCell id="0" />
        <mxCell id="1" parent="0" />
        <mxCell id="rGCkJp5auz4TJ9NpAluP-1" value="input a number from the user until we got a positive number" style="text;html=1;align=center;verticalAlign=middle;whiteSpace=wrap;rounded=0;" parent="1" vertex="1">
          <mxGeometry x="110" y="80" width="170" height="30" as="geometry" />
        </mxCell>
        <mxCell id="rGCkJp5auz4TJ9NpAluP-2" value="START" style="rounded=1;whiteSpace=wrap;html=1;" parent="1" vertex="1">
          <mxGeometry x="141.5" y="130" width="120" height="60" as="geometry" />
        </mxCell>
        <mxCell id="rGCkJp5auz4TJ9NpAluP-3" value="STOP" style="rounded=1;whiteSpace=wrap;html=1;" parent="1" vertex="1">
          <mxGeometry x="410" y="510" width="120" height="60" as="geometry" />
        </mxCell>
        <mxCell id="rGCkJp5auz4TJ9NpAluP-4" value="x: int&amp;nbsp; = -1" style="rounded=0;whiteSpace=wrap;html=1;" parent="1" vertex="1">
          <mxGeometry x="141.5" y="220" width="120" height="60" as="geometry" />
        </mxCell>
        <mxCell id="rGCkJp5auz4TJ9NpAluP-14" value="" style="edgeStyle=orthogonalEdgeStyle;rounded=0;orthogonalLoop=1;jettySize=auto;html=1;" parent="1" source="rGCkJp5auz4TJ9NpAluP-5" target="rGCkJp5auz4TJ9NpAluP-6" edge="1">
          <mxGeometry relative="1" as="geometry" />
        </mxCell>
        <mxCell id="rGCkJp5auz4TJ9NpAluP-5" value="x&lt;br&gt;&quot;input positive number&quot;" style="shape=card;whiteSpace=wrap;html=1;" parent="1" vertex="1">
          <mxGeometry x="149" y="310" width="105" height="70" as="geometry" />
        </mxCell>
        <mxCell id="rGCkJp5auz4TJ9NpAluP-11" value="" style="edgeStyle=orthogonalEdgeStyle;rounded=0;orthogonalLoop=1;jettySize=auto;html=1;" parent="1" source="rGCkJp5auz4TJ9NpAluP-6" target="rGCkJp5auz4TJ9NpAluP-8" edge="1">
          <mxGeometry relative="1" as="geometry" />
        </mxCell>
        <mxCell id="rGCkJp5auz4TJ9NpAluP-21" value="YES" style="edgeLabel;html=1;align=center;verticalAlign=middle;resizable=0;points=[];" parent="rGCkJp5auz4TJ9NpAluP-11" vertex="1" connectable="0">
          <mxGeometry x="0.7333" y="1" relative="1" as="geometry">
            <mxPoint as="offset" />
          </mxGeometry>
        </mxCell>
        <mxCell id="rGCkJp5auz4TJ9NpAluP-13" style="edgeStyle=orthogonalEdgeStyle;rounded=0;orthogonalLoop=1;jettySize=auto;html=1;entryX=0.5;entryY=0;entryDx=0;entryDy=0;" parent="1" source="rGCkJp5auz4TJ9NpAluP-6" target="rGCkJp5auz4TJ9NpAluP-3" edge="1">
          <mxGeometry relative="1" as="geometry" />
        </mxCell>
        <mxCell id="rGCkJp5auz4TJ9NpAluP-22" value="NO" style="edgeLabel;html=1;align=center;verticalAlign=middle;resizable=0;points=[];" parent="rGCkJp5auz4TJ9NpAluP-13" vertex="1" connectable="0">
          <mxGeometry x="-0.6462" y="2" relative="1" as="geometry">
            <mxPoint x="1" as="offset" />
          </mxGeometry>
        </mxCell>
        <mxCell id="rGCkJp5auz4TJ9NpAluP-6" value="while x &amp;lt;= 0" style="ellipse;whiteSpace=wrap;html=1;" parent="1" vertex="1">
          <mxGeometry x="141.5" y="410" width="120" height="80" as="geometry" />
        </mxCell>
        <mxCell id="rGCkJp5auz4TJ9NpAluP-7" value="x&lt;br&gt;input number" style="shape=card;whiteSpace=wrap;html=1;" parent="1" vertex="1">
          <mxGeometry x="149" y="620" width="105" height="70" as="geometry" />
        </mxCell>
        <mxCell id="rGCkJp5auz4TJ9NpAluP-12" value="" style="edgeStyle=orthogonalEdgeStyle;rounded=0;orthogonalLoop=1;jettySize=auto;html=1;" parent="1" source="rGCkJp5auz4TJ9NpAluP-8" target="rGCkJp5auz4TJ9NpAluP-7" edge="1">
          <mxGeometry relative="1" as="geometry" />
        </mxCell>
        <mxCell id="rGCkJp5auz4TJ9NpAluP-8" value="&quot;this number is not positive&quot;" style="shape=document;whiteSpace=wrap;html=1;boundedLbl=1;" parent="1" vertex="1">
          <mxGeometry x="123" y="510" width="157" height="80" as="geometry" />
        </mxCell>
        <mxCell id="rGCkJp5auz4TJ9NpAluP-9" value="" style="endArrow=none;html=1;rounded=0;" parent="1" edge="1">
          <mxGeometry width="50" height="50" relative="1" as="geometry">
            <mxPoint x="182.5" y="731" as="sourcePoint" />
            <mxPoint x="232.5" y="731" as="targetPoint" />
            <Array as="points" />
          </mxGeometry>
        </mxCell>
        <mxCell id="rGCkJp5auz4TJ9NpAluP-10" value="" style="endArrow=none;html=1;rounded=0;" parent="1" edge="1">
          <mxGeometry width="50" height="50" relative="1" as="geometry">
            <mxPoint x="162.5" y="741" as="sourcePoint" />
            <mxPoint x="252.5" y="741" as="targetPoint" />
            <Array as="points" />
          </mxGeometry>
        </mxCell>
        <mxCell id="rGCkJp5auz4TJ9NpAluP-15" value="" style="endArrow=classic;html=1;rounded=0;exitX=0.59;exitY=0.971;exitDx=0;exitDy=0;exitPerimeter=0;" parent="1" source="rGCkJp5auz4TJ9NpAluP-7" edge="1">
          <mxGeometry width="50" height="50" relative="1" as="geometry">
            <mxPoint x="400" y="440" as="sourcePoint" />
            <mxPoint x="210" y="730" as="targetPoint" />
          </mxGeometry>
        </mxCell>
        <mxCell id="rGCkJp5auz4TJ9NpAluP-18" value="" style="endArrow=classic;html=1;rounded=0;entryX=-0.012;entryY=0.35;entryDx=0;entryDy=0;entryPerimeter=0;" parent="1" target="rGCkJp5auz4TJ9NpAluP-6" edge="1">
          <mxGeometry width="50" height="50" relative="1" as="geometry">
            <mxPoint x="90" y="440" as="sourcePoint" />
            <mxPoint x="450" y="390" as="targetPoint" />
          </mxGeometry>
        </mxCell>
        <mxCell id="rGCkJp5auz4TJ9NpAluP-19" value="" style="endArrow=none;html=1;rounded=0;" parent="1" edge="1">
          <mxGeometry width="50" height="50" relative="1" as="geometry">
            <mxPoint x="90" y="730" as="sourcePoint" />
            <mxPoint x="90" y="440" as="targetPoint" />
          </mxGeometry>
        </mxCell>
        <mxCell id="rGCkJp5auz4TJ9NpAluP-20" value="" style="endArrow=none;html=1;rounded=0;" parent="1" edge="1">
          <mxGeometry width="50" height="50" relative="1" as="geometry">
            <mxPoint x="90" y="730" as="sourcePoint" />
            <mxPoint x="150" y="730" as="targetPoint" />
          </mxGeometry>
        </mxCell>
      </root>
    </mxGraphModel>
  </diagram>
</mxfile>
